<svg width="1137" height="347" viewBox="0 0 1137 347" fill="none" xmlns="http://www.w3.org/2000/svg">
<path fill-rule="evenodd" clip-rule="evenodd" d="M326.963 9.08784C334.793 1.93837 343.5 -2.81442 354.455 1.8702C362.625 5.36372 367.129 15.6008 366.154 27.6929C364.075 53.4925 354.698 77.0949 343.779 100.161C327.399 134.764 306.72 166.635 280.916 195.034C275.147 201.384 275.822 208.959 274.657 216.235C271.811 234.003 270.422 251.926 269.168 271.588C279.194 247.314 289.673 225.265 308.073 208.166C317.653 199.262 328.196 191.984 341.941 191.39C356.446 190.764 366.56 197.282 372.463 210.481C376.652 219.848 377.466 229.808 377.664 240.999C392.61 234.282 405.955 226.888 418.506 218.083C428.71 210.925 436.436 201.29 445.03 192.436C455.169 181.989 464.237 169.319 480.507 166.197C496.413 163.145 512.019 169.095 520.417 182.82C526.485 192.738 528.796 203.756 529.973 215.105C530.229 217.568 530.398 220.039 530.722 223.874C555.749 216.741 575.799 204.211 590.026 182.279C591.911 177.827 593.555 173.876 595.185 169.92C597.223 164.973 600.951 162.569 606.016 164.496C610.981 166.384 611.331 170.755 609.765 175.289C601.852 198.217 596.591 221.728 594.205 245.853C593.061 257.411 593.096 268.989 594.794 280.5C595.309 283.993 596.246 287.733 599.931 289.215C604.145 290.91 607.127 287.97 609.939 285.439C622.61 274.031 630.187 259.128 637.785 244.344C646.662 227.071 653.784 209.014 660.593 190.844C661.3 188.958 662.005 187.068 662.801 185.218C664.498 181.276 666.909 177.874 671.804 178.776C676.992 179.733 679.37 183.401 679.44 188.584C679.653 204.449 679.596 220.332 681.231 236.134C682.503 248.422 684.717 260.556 689.898 271.901C697.983 289.602 708.946 291.165 722.089 276.562C731.193 266.446 736.81 254.312 741.749 241.871C746.4 230.156 749.741 218.049 752.486 205.726C753.927 199.259 753.034 195.806 746.312 192.992C734.02 187.846 728.356 173.837 732.346 161.496C734.47 154.929 738.776 150.638 745.631 149.473C752.448 148.315 758.11 150.84 762.307 156.219C766.278 161.307 768.218 167.211 768.885 173.638C769.392 178.519 771.033 181.143 777.264 179.459C797.36 174.026 816.243 165.546 835.415 157.751C872.163 142.81 909.126 128.413 947.914 119.493C994.441 108.793 1041.18 104.764 1088.18 116.782C1101.96 120.307 1115.05 125.6 1127.69 132.043C1129.49 132.957 1131.26 133.988 1132.83 135.234C1136.64 138.266 1138.15 142.208 1135.4 146.506C1132.44 151.137 1128.3 150.3 1124.13 147.917C1109.79 139.714 1094.56 133.719 1078.43 130.037C1039.96 121.258 1001.67 123.88 963.425 131.667C914.602 141.606 868.689 160.026 822.985 179.114C807.145 185.73 791.256 192.323 774.211 195.37C769.431 196.224 768.758 199.556 768.011 203.552C762.925 230.759 754.446 256.71 738.365 279.681C734.009 285.903 729.016 291.616 722.688 295.955C707.999 306.026 692.705 303.309 682.272 288.906C672.472 275.375 669.604 259.504 666.887 243.6C665.879 237.698 665.189 231.742 664.146 224.337C660.218 232.67 656.992 239.909 653.434 246.982C645.155 263.441 636.413 279.635 623.723 293.29C621.842 295.314 619.813 297.252 617.623 298.934C601.378 311.413 585.271 305.762 580.395 285.809C575.939 267.581 578.037 249.319 580.508 231.08C581.176 226.147 581.858 221.217 582.6 215.807C578.935 215.98 577.244 218.32 575.086 219.77C563.063 227.849 550.337 234.664 536.239 238.17C529.66 239.806 526.876 243.072 525.289 249.458C520.314 269.472 510.911 287.061 494.237 300.041C483.137 308.681 470.519 312.55 456.565 309.948C439.792 306.819 428.581 293.065 424.805 273.645C422.152 260 424.497 246.68 426.026 231.826C420.951 234.863 416.773 237.349 412.609 239.858C402.215 246.12 391.634 252.065 380.483 256.862C376.112 258.743 373.874 261.571 372.453 266.004C365.536 287.581 354.764 306.688 335.428 319.764C325.858 326.236 315.665 330.963 303.481 328.538C288.306 325.517 281.681 312.173 288.587 298.078C293.803 287.432 303.081 280.804 312.596 274.5C325.489 265.958 339.478 259.406 353.588 253.224C359.679 250.556 361.838 246.813 361.689 240.462C361.499 232.394 361.891 224.338 358.58 216.7C354.653 207.642 347.012 204.115 337.625 207.235C326.947 210.783 318.75 217.777 311.753 226.281C287.761 255.444 277.588 290.373 269.805 326.281C268.9 330.457 268.111 334.662 267.358 338.869C266.482 343.761 263.816 346.71 258.635 346.418C253.305 346.118 251.086 342.463 251.097 337.718C251.125 325.141 251.153 312.547 251.788 299.991C253.142 273.205 255.487 246.487 258.852 218.224C252.231 223.408 246.776 227.715 241.283 231.973C197.038 266.275 147.39 287.793 91.6208 295.047C45.5497 301.039 0.365999 298.889 -43.3363 281.598C-51.8264 278.239 -59.9887 274.215 -67.5986 269.242C-71.4339 266.736 -73.7395 262.806 -70.6908 258.236C-67.9297 254.097 -63.9182 254.287 -59.9731 256.539C-14.2798 282.624 35.0424 287.102 86.1141 280.612C151.455 272.309 207.718 244.941 255.648 200.125C260.551 195.541 262.817 190.306 263.899 183.815C271.988 135.298 282.942 87.5581 304.207 42.7611C308.322 34.0907 313.098 25.7809 318.989 18.1716C321.452 14.9892 324.003 11.7909 326.963 9.08784ZM355.114 268.519C344.432 274.265 335.635 278.676 327.175 283.655C321.1 287.231 315.399 291.463 309.68 295.606C306.806 297.688 304.55 300.456 302.93 303.669C299.567 310.34 301.657 313.705 309.222 313.711C317.586 313.717 324.058 309.27 331.284 303.965C341.562 294.62 349.725 283.897 355.114 268.519ZM454.046 207.978C443.968 221.949 441.176 236.89 438.887 253.382C438.785 263.247 439.146 273.034 443.692 282.13C449.004 292.756 458.428 296.651 469.996 294.859C490.868 291.626 508.637 262.57 510.397 242.449C485.91 241.221 464.745 233.831 454.046 207.978ZM503.139 185.803C495.999 179.213 481.748 179.252 473.692 185.849C467.366 191.029 466.812 199.76 472.209 209.23C478.556 220.37 496.225 228.479 509.447 226.641C513.537 226.072 514.179 223.813 514.204 220.414C514.269 211.783 513.329 203.357 509.303 194.318C507.78 191.098 505.759 188.222 503.139 185.803ZM347.717 16.1888C344.447 14.3526 341.914 16.5804 339.437 18.2213C334.9 21.2279 332.333 25.9788 328.528 31.0542C326.805 33.8327 324.975 36.5512 323.377 39.3989C307.345 67.9659 297.974 98.9713 290.106 130.478C286.823 143.624 284.3 156.957 281.432 170.205C307.948 139.056 327.578 104.387 341.596 66.635C346.746 52.7662 351.598 38.6666 350.795 23.4625C350.647 20.6564 350.508 17.7568 347.717 16.1888ZM752.979 170.444C752.063 168.519 751.669 166.027 748.614 166.402C745.857 173.139 747.011 175.794 753.824 178.031C753.878 177.007 754.03 176.038 753.953 175.088C753.854 173.87 753.571 172.667 752.979 170.444Z" fill="url(#paint0_radial_3107_2433)"/>
<defs>
<radialGradient id="paint0_radial_3107_2433" cx="0" cy="0" r="1" gradientTransform="matrix(717.73 201.811 -597.367 1272.26 41.6151 183.452)" gradientUnits="userSpaceOnUse">
<stop stop-color="#E07A7A"/>
<stop offset="0.365385" stop-color="#FFCF7C"/>
<stop offset="0.668269" stop-color="#CB92F9"/>
<stop offset="1" stop-color="#807EFF"/>
</radialGradient>
</defs>
</svg>
